<svg width="64" height="65" viewBox="0 0 64 65" fill="none" xmlns="http://www.w3.org/2000/svg">
<g clip-path="url(#clip0_4335_172)">
<path d="M22.848 55.028C19.968 52.404 19.136 46.836 20.352 42.804C22.464 45.364 25.344 46.132 28.288 46.58C32.896 47.284 37.44 47.028 41.728 44.916C42.24 44.66 42.688 44.34 43.2 44.02C43.584 45.172 43.712 46.388 43.584 47.604C43.264 50.548 41.792 52.788 39.488 54.516C38.592 55.22 37.568 55.796 36.608 56.436C33.664 58.42 32.896 60.724 33.984 64.116C33.984 64.18 34.048 64.308 34.112 64.5C32.64 63.796 31.552 62.836 30.72 61.556C29.824 60.212 29.44 58.676 29.376 57.076C29.376 56.308 29.376 55.476 29.248 54.708C28.992 52.788 28.096 51.956 26.432 51.892C24.704 51.828 23.36 52.916 22.976 54.58C22.912 54.708 22.912 54.836 22.848 55.028Z" fill="white"/>
<path d="M6.40039 42.1C6.40039 42.1 14.9124 37.94 23.4884 37.94L29.9524 17.908C30.2084 16.948 30.9124 16.308 31.6804 16.308C32.4484 16.308 33.1524 16.948 33.4084 17.908L39.8724 37.94C49.9844 37.94 56.9604 42.1 56.9604 42.1C56.9604 42.1 42.4964 2.484 42.4324 2.42C42.0484 1.268 41.3444 0.5 40.3844 0.5H22.9764C22.0164 0.5 21.3764 1.268 20.9284 2.42C20.8644 2.484 6.40039 42.1 6.40039 42.1Z" fill="white"/>
</g>
<defs>
<clipPath id="clip0_4335_172">
<rect width="64" height="64" fill="white" transform="translate(0 0.5)"/>
</clipPath>
</defs>
</svg>
