<svg width="64" height="65" viewBox="0 0 64 65" fill="none" xmlns="http://www.w3.org/2000/svg">
<g clip-path="url(#clip0_4335_176)">
<path fill-rule="evenodd" clip-rule="evenodd" d="M60.2878 0.5L55.1678 58.1L31.9998 64.5L8.95984 58.1L3.83984 0.5H60.2878ZM39.872 42.804L40.704 33.652V33.524H32.0642V33.588H16.2562L15.6162 26.548H32V26.484H41.344L41.984 19.252H32.0639V19.316H14.9759L14.3359 12.276H32V12.212H49.728L48.448 26.484L48.256 28.404L46.592 47.028L46.464 48.244L32.0642 52.2581V52.276L32.032 52.2671L32 52.276V52.2582L17.5362 48.244L16.5762 37.172H19.8402H23.6802L24.1922 42.804L32.0321 44.9074L39.872 42.804Z" fill="white"/>
</g>
<defs>
<clipPath id="clip0_4335_176">
<rect width="64" height="64" fill="white" transform="translate(0 0.5)"/>
</clipPath>
</defs>
</svg>
