<svg width="64" height="64" viewBox="0 0 64 64" fill="none" xmlns="http://www.w3.org/2000/svg">
<g clip-path="url(#clip0_6364_2)">
<path d="M21.312 64C27.2 64 32 59.2 32 53.312V42.688H21.312C15.424 42.688 10.624 47.488 10.624 53.376C10.624 59.264 15.424 64 21.312 64Z" fill="white"/>
<path d="M10.6885 32C10.6885 26.112 15.4885 21.312 21.3765 21.312H32.0005V42.624H21.3125C15.4245 42.688 10.6885 37.888 10.6885 32Z" fill="white"/>
<path d="M10.6885 10.688C10.6885 4.8 15.4245 0 21.3125 0H32.0005V21.312H21.3125C15.4245 21.312 10.6885 16.576 10.6885 10.688Z" fill="white"/>
<path d="M32 0H42.688C48.576 0 53.376 4.8 53.376 10.688C53.376 16.576 48.576 21.376 42.688 21.376H32V0Z" fill="#9B9B9B"/>
<path d="M53.312 32C53.312 37.888 48.512 42.688 42.624 42.688C36.736 42.688 32 37.888 32 32C32 26.112 36.8 21.312 42.688 21.312C48.576 21.312 53.312 26.112 53.312 32Z" fill="white"/>
</g>
<defs>
<clipPath id="clip0_6364_2">
<rect width="64" height="64" fill="white"/>
</clipPath>
</defs>
</svg>
