<svg width="64" height="64" viewBox="0 0 64 64" fill="none" xmlns="http://www.w3.org/2000/svg">
<g clip-path="url(#clip0_6364_9)">
<path d="M32 0.640015C14.336 0.640015 0 14.976 0 32.64C0 46.784 9.152 58.752 21.888 62.976C23.488 63.296 24.064 62.272 24.064 61.44C24.064 60.672 24.064 58.176 24 55.488C15.104 57.408 13.248 51.712 13.248 51.712C11.776 48 9.664 47.04 9.664 47.04C6.784 45.056 9.856 45.12 9.856 45.12C13.056 45.376 14.784 48.448 14.784 48.448C17.664 53.312 22.272 51.904 24.128 51.136C24.384 49.088 25.216 47.68 26.176 46.848C19.072 46.016 11.584 43.264 11.584 31.04C11.584 27.52 12.864 24.704 14.912 22.464C14.592 21.632 13.504 18.432 15.232 14.016C15.232 14.016 17.92 13.184 24.064 17.28C26.624 16.576 29.376 16.192 32.064 16.192C34.752 16.192 37.504 16.576 40.064 17.28C46.144 13.12 48.832 14.016 48.832 14.016C50.56 18.432 49.472 21.696 49.152 22.464C51.2 24.704 52.416 27.584 52.416 31.04C52.416 43.328 44.928 46.016 37.824 46.848C38.976 47.872 40 49.792 40 52.8C40 57.088 39.936 60.544 39.936 61.568C39.936 62.4 40.512 63.424 42.112 63.104C54.848 58.752 64 46.784 64 32.64C64 14.976 49.664 0.640015 32 0.640015Z" fill="white"/>
<path d="M11.9682 46.208C11.9042 46.336 11.6482 46.4 11.3922 46.336C11.1362 46.208 11.0082 46.016 11.1362 45.824C11.2002 45.632 11.4562 45.632 11.7122 45.696C11.9042 45.824 12.0962 46.08 11.9682 46.208ZM13.5682 47.616C13.4402 47.744 13.1202 47.68 12.9282 47.488C12.7362 47.296 12.6722 46.976 12.8642 46.848C12.9922 46.72 13.3122 46.784 13.5042 46.976C13.6962 47.168 13.6962 47.488 13.5682 47.616ZM14.6562 49.408C14.4642 49.536 14.1442 49.408 13.9522 49.152C13.7602 48.896 13.7602 48.512 13.9522 48.384C14.1442 48.256 14.4642 48.384 14.6562 48.64C14.8482 48.96 14.8482 49.28 14.6562 49.408ZM16.4482 51.52C16.2562 51.712 15.8722 51.648 15.6162 51.392C15.3602 51.136 15.2322 50.752 15.4242 50.56C15.6162 50.368 16.0002 50.432 16.2562 50.688C16.5762 50.944 16.6402 51.328 16.4482 51.52ZM18.8162 52.224C18.7522 52.48 18.3682 52.608 18.0482 52.48C17.6642 52.352 17.4722 52.096 17.5362 51.84C17.6002 51.584 17.9842 51.456 18.3682 51.584C18.6882 51.648 18.8802 51.968 18.8162 52.224ZM21.5042 52.48C21.5042 52.736 21.1842 52.992 20.8002 52.992C20.4162 52.992 20.0962 52.8 20.0962 52.544C20.0962 52.288 20.4162 52.032 20.8002 52.032C21.1842 52.032 21.5042 52.224 21.5042 52.48ZM24.1282 52.416C24.1922 52.672 23.9362 52.928 23.5522 52.992C23.1682 53.056 22.8482 52.928 22.7842 52.672C22.7202 52.416 22.9762 52.16 23.3602 52.096C23.7442 51.968 24.1282 52.16 24.1282 52.416Z" fill="white"/>
</g>
<defs>
<clipPath id="clip0_6364_9">
<rect width="64" height="64" fill="white"/>
</clipPath>
</defs>
</svg>
