<svg width="64" height="64" viewBox="0 0 64 64" fill="none" xmlns="http://www.w3.org/2000/svg">
<g clip-path="url(#clip0_6364_19)">
<path d="M64 0H0V64H64V0Z" fill="white"/>
<path d="M43.008 49.984C44.288 52.096 45.952 53.632 48.96 53.632C51.456 53.632 53.056 52.416 53.056 50.688C53.056 48.64 51.392 47.872 48.704 46.72L47.232 46.08C42.88 44.224 40 41.92 40 36.992C40 32.512 43.456 29.056 48.832 29.056C52.672 29.056 55.424 30.4 57.408 33.856L52.736 36.864C51.712 35.008 50.624 34.304 48.896 34.304C47.104 34.304 46.016 35.392 46.016 36.864C46.016 38.656 47.104 39.424 49.728 40.512L51.2 41.152C56.32 43.328 59.2 45.568 59.2 50.624C59.2 56.064 54.976 59.008 49.216 59.008C43.648 59.008 40 56.32 38.272 52.864L43.008 49.984ZM21.76 50.496C22.72 52.16 23.552 53.568 25.6 53.568C27.584 53.568 28.8 52.8 28.8 49.792V29.312H34.816V49.92C34.816 56.128 31.168 59.008 25.856 59.008C21.056 59.008 18.24 56.512 16.832 53.504L21.76 50.496Z" fill="#171629"/>
</g>
<defs>
<clipPath id="clip0_6364_19">
<rect width="64" height="64" fill="white"/>
</clipPath>
</defs>
</svg>
