<svg width="64" height="65" viewBox="0 0 64 65" fill="none" xmlns="http://www.w3.org/2000/svg">
<mask id="mask0_4335_157" style="mask-type:luminance" maskUnits="userSpaceOnUse" x="0" y="26" width="64" height="14">
<path d="M64 26.1H0V39.092H64V26.1Z" fill="white"/>
</mask>
<g mask="url(#mask0_4335_157)">
<path d="M42.5601 26.1H53.6961V28.148H49.2801V38.964H47.0401V28.148H42.4961V26.1H42.5601Z" fill="white"/>
<path d="M24.1917 26.1V28.148H15.2317V31.476H22.3997V33.524H15.2957V36.916H24.2557V38.964H13.0557V28.148V26.1H24.1917Z" fill="white"/>
<path d="M29.7599 26.1H26.8799L37.2479 38.964H40.1279L34.9439 32.5L40.1279 26.1H37.2479L33.5359 30.708L29.7599 26.1Z" fill="white"/>
<path d="M32.7679 35.316L31.2959 33.524L26.8799 39.028H29.7599L32.7679 35.316Z" fill="white"/>
<path fill-rule="evenodd" clip-rule="evenodd" d="M13.12 38.964L2.752 26.1H0V38.964H2.24V28.852L10.368 38.964H13.12Z" fill="white"/>
<path d="M54.2078 38.9C54.0158 38.9 53.8878 38.836 53.8238 38.708C53.7598 38.58 53.6318 38.452 53.6318 38.324C53.6318 38.196 53.6958 38.004 53.8238 37.94C53.9518 37.876 54.0798 37.748 54.2078 37.748C54.3358 37.748 54.5278 37.812 54.5918 37.94C54.7198 38.068 54.7838 38.196 54.7838 38.324C54.7838 38.452 54.7838 38.516 54.7198 38.644C54.6558 38.708 54.5918 38.772 54.5278 38.836C54.3998 38.9 54.2718 38.9 54.2078 38.9Z" fill="white"/>
<path d="M57.9842 33.46H58.9442V37.236C58.9442 37.556 58.8802 37.876 58.7522 38.132C58.6242 38.388 58.3682 38.58 58.1122 38.708C57.8562 38.836 57.5362 38.9 57.2162 38.9C56.8962 38.9 56.6402 38.836 56.3842 38.708C56.1282 38.58 55.9362 38.452 55.8082 38.196C55.6802 38.004 55.6162 37.684 55.6162 37.364H56.5762C56.5762 37.492 56.6402 37.62 56.7042 37.748C56.7682 37.876 56.8322 37.94 56.9602 38.004C57.0882 38.068 57.2162 38.068 57.3442 38.068C57.4722 38.068 57.6642 38.004 57.7282 37.94C57.8562 37.876 57.9202 37.748 57.9842 37.62C58.0482 37.492 58.0482 37.364 58.0482 37.172V33.46H57.9842Z" fill="white"/>
<path d="M62.9763 34.932C62.9763 34.676 62.8483 34.548 62.6563 34.42C62.4643 34.292 62.2083 34.228 61.9523 34.228C61.7603 34.228 61.5683 34.228 61.4403 34.292C61.3123 34.356 61.1843 34.42 61.1203 34.548C61.0563 34.676 60.9923 34.804 60.9923 34.932C60.9923 35.06 60.9923 35.124 61.0563 35.252C61.1203 35.316 61.1843 35.38 61.2483 35.444C61.3123 35.508 61.4403 35.572 61.5683 35.572C61.6963 35.636 61.7603 35.636 61.8883 35.7L62.4003 35.828C62.5923 35.892 62.7843 35.956 62.9763 36.02C63.1683 36.084 63.3603 36.212 63.4883 36.34C63.6163 36.468 63.7443 36.596 63.8723 36.788C63.9363 36.98 64.0003 37.172 64.0003 37.428C64.0003 37.748 63.9363 38.004 63.7443 38.26C63.5523 38.516 63.3603 38.708 63.0403 38.836C62.7203 38.964 62.3363 39.028 61.9523 39.028C61.5043 39.028 61.1843 38.964 60.8643 38.836C60.5443 38.708 60.2883 38.516 60.1603 38.26C59.9683 38.004 59.9043 37.684 59.9043 37.364H60.8003C60.8003 37.556 60.8643 37.684 60.9923 37.812C61.1203 37.94 61.2483 38.004 61.3763 38.068C61.5683 38.132 61.7603 38.132 61.9523 38.132C62.1443 38.132 62.3363 38.068 62.5283 38.004C62.7203 37.94 62.8483 37.876 62.9123 37.748C62.9763 37.62 63.0403 37.492 63.0403 37.364C63.0403 37.236 62.9763 37.108 62.9123 37.044C62.8483 36.98 62.7203 36.852 62.5923 36.788C62.4643 36.724 62.2723 36.66 62.0803 36.596L61.4403 36.468C60.9923 36.34 60.6083 36.212 60.3523 35.956C60.0963 35.7 59.9683 35.444 59.9683 35.06C59.9683 34.74 60.0323 34.484 60.2243 34.228C60.4163 33.972 60.6083 33.78 60.9283 33.652C61.2483 33.524 61.5683 33.46 61.9523 33.46C62.3363 33.46 62.6563 33.524 62.9763 33.652C63.2963 33.78 63.4883 33.972 63.6803 34.228C63.8723 34.484 63.9363 34.74 63.9363 35.06H62.9763V34.932Z" fill="white"/>
</g>
</svg>
