<svg width="65" height="65" viewBox="0 0 65 65" fill="none" xmlns="http://www.w3.org/2000/svg">
<g clip-path="url(#clip0_4335_151)">
<path d="M32.3713 38.132C35.5073 38.132 38.0033 35.636 38.0033 32.5C38.0033 29.364 35.5073 26.868 32.3713 26.868C29.2353 26.868 26.7393 29.364 26.7393 32.5C26.7393 35.636 29.2353 38.132 32.3713 38.132Z" fill="white"/>
<path d="M32.3716 44.084C49.0756 44.084 62.6436 38.9 62.6436 32.5C62.6436 26.1 49.0756 20.916 32.3716 20.916C15.6676 20.916 2.09961 26.1 2.09961 32.5C2.09961 38.9 15.6676 44.084 32.3716 44.084Z" stroke="white" stroke-width="5"/>
<path d="M22.3877 38.26C30.7077 52.788 41.9717 61.94 47.5397 58.74C53.0437 55.54 50.8037 41.204 42.4197 26.74C34.0357 12.212 22.7717 3.06001 17.2677 6.26001C11.6997 9.46001 14.0037 23.796 22.3877 38.26Z" stroke="white" stroke-width="5"/>
<path d="M22.3878 26.74C14.0038 41.204 11.7638 55.54 17.2678 58.74C22.7718 61.94 34.0358 52.788 42.3558 38.26C50.7398 23.796 53.0438 9.46001 47.5398 6.26001C41.9718 3.06001 30.7078 12.212 22.3878 26.74Z" stroke="white" stroke-width="5"/>
</g>
<defs>
<clipPath id="clip0_4335_151">
<rect width="64.64" height="64" fill="white" transform="translate(0.179688 0.5)"/>
</clipPath>
</defs>
</svg>
