<svg width="64" height="64" viewBox="0 0 64 64" fill="none" xmlns="http://www.w3.org/2000/svg">
<path d="M55.1041 35.904C52.8641 35.904 50.9441 36.48 49.2801 37.248C48.7041 36.096 48.0641 35.008 48.0001 34.24C47.8721 33.344 47.7441 32.768 47.8721 31.744C48.0001 30.656 48.6401 29.12 48.6401 28.992C48.6401 28.864 48.5121 28.352 47.2321 28.288C45.9521 28.288 44.8641 28.544 44.7361 28.864C44.6081 29.184 44.3521 29.952 44.2241 30.784C44.0321 31.936 41.6641 36.096 40.3201 38.336C39.8721 37.504 39.4881 36.736 39.4241 36.16C39.2961 35.264 39.1681 34.688 39.2961 33.664C39.4241 32.64 40.0641 31.04 40.0641 30.912C40.0641 30.784 39.9361 30.272 38.6561 30.208C37.3761 30.208 36.2881 30.464 36.1601 30.784C36.0321 31.104 35.9041 31.936 35.6481 32.704C35.3921 33.472 32.2561 40.448 31.4241 42.24C30.9761 43.136 30.6561 43.904 30.4001 44.416C30.4001 44.416 30.4001 44.48 30.3361 44.48C30.1441 44.928 30.0161 45.12 30.0161 45.12C29.8241 45.44 29.6321 45.696 29.5681 45.696C29.5041 45.696 29.3761 44.864 29.5681 43.712C30.0161 41.28 31.1681 37.504 31.1041 37.376C31.1041 37.312 31.2961 36.672 30.4001 36.288C29.5041 35.968 29.1841 36.48 29.0561 36.48C28.9921 36.48 28.9281 36.672 28.9281 36.672C28.9281 36.672 29.9521 32.448 27.0081 32.448C25.1521 32.448 22.5921 34.496 21.3761 36.288C20.6081 36.736 18.8801 37.632 17.0881 38.656C16.3841 39.04 15.6801 39.424 15.0401 39.808C14.9761 39.744 14.9761 39.68 14.9121 39.68C11.1361 35.968 4.5441 33.28 4.8001 28.16C4.9281 26.24 5.5681 21.376 17.4721 15.424C27.3281 10.56 35.1361 11.904 36.4801 14.912C38.4001 19.136 32.2561 27.072 22.1441 28.224C18.2401 28.672 16.2561 27.136 15.7441 26.624C15.2321 26.048 15.1041 25.984 14.9121 26.112C14.5921 26.304 14.7841 26.816 14.9121 27.136C15.2321 27.904 16.4481 29.312 18.5601 30.016C20.4161 30.592 24.9601 30.976 30.4641 28.864C36.6081 26.496 41.4721 19.84 40.0001 14.272C38.5921 8.63997 29.2481 6.78397 20.4161 9.91997C15.1681 11.776 9.4721 14.72 5.3761 18.56C0.512102 23.04 -0.255898 27.008 0.0641021 28.672C1.2161 34.56 9.3441 38.4 12.5441 41.216C12.3521 41.28 12.2241 41.408 12.0961 41.472C10.4961 42.304 4.2881 45.504 2.7521 48.96C1.0241 52.864 3.0081 55.616 4.3521 56C8.5121 57.152 12.8001 55.104 15.1041 51.648C17.4081 48.192 17.1521 43.776 16.0641 41.728C16.0641 41.728 16.0641 41.664 16.0001 41.664C16.4481 41.408 16.8321 41.152 17.2801 40.896C18.1121 40.384 18.9441 39.936 19.6481 39.552C19.2641 40.64 18.9441 41.92 18.8161 43.776C18.6241 45.952 19.5201 48.832 20.7361 49.92C21.2481 50.432 21.8881 50.432 22.2721 50.432C23.6801 50.432 24.2561 49.28 24.9601 47.936C25.7921 46.272 26.5601 44.352 26.5601 44.352C26.5601 44.352 25.6001 49.536 28.1601 49.536C29.1201 49.536 30.0161 48.32 30.4641 47.68C30.4641 47.68 30.4641 47.616 30.5281 47.552C30.5921 47.424 30.6561 47.296 30.6561 47.296C31.0401 46.656 31.8721 45.184 33.1521 42.688C34.7521 39.488 36.2881 35.52 36.2881 35.52C36.2881 35.52 36.4161 36.48 36.9281 38.08C37.1841 39.04 37.8241 40.064 38.2721 41.088C37.8881 41.6 37.6961 41.92 37.6961 41.92C37.3761 42.304 37.0561 42.752 36.6721 43.2C35.3921 44.736 33.8561 46.464 33.6641 46.976C33.4081 47.552 33.4721 48 33.9201 48.384C34.2401 48.64 34.8801 48.704 35.4561 48.64C36.6081 48.576 37.4401 48.256 37.8241 48.128C38.4641 47.936 39.1681 47.552 39.8721 47.04C41.1521 46.144 41.8561 44.8 41.7921 43.072C41.7281 42.112 41.4721 41.152 41.0241 40.256C41.1521 40.064 41.2161 39.936 41.3441 39.744C43.3281 36.864 44.8641 33.664 44.8641 33.664C44.8641 33.664 44.9921 34.624 45.5041 36.224C45.7601 37.056 46.2081 37.952 46.6561 38.784C44.8001 40.32 43.6481 42.048 43.2641 43.2C42.4961 45.312 43.0721 46.272 44.1601 46.528C44.6721 46.656 45.3761 46.4 45.8881 46.208C46.5281 46.016 47.2961 45.632 48.0641 45.12C49.3441 44.224 50.4961 42.88 50.4321 41.152C50.3681 40.384 50.1761 39.552 49.9201 38.784C51.5201 38.144 53.5041 37.76 56.1281 38.08C61.6961 38.72 62.7841 42.176 62.5921 43.648C62.4001 45.12 61.1841 45.888 60.8001 46.144C60.4161 46.4 60.2881 46.464 60.3521 46.656C60.4161 46.912 60.6081 46.912 60.9281 46.848C61.3761 46.784 63.8721 45.696 63.9361 43.008C64.1921 39.616 60.8641 35.904 55.1041 35.904ZM12.1601 50.368C10.3041 52.352 7.7441 53.12 6.6561 52.48C5.4401 51.776 5.9521 48.832 8.1921 46.72C9.6001 45.44 11.3281 44.224 12.5441 43.456C12.8001 43.264 13.1841 43.072 13.6961 42.752C13.7601 42.688 13.8241 42.688 13.8241 42.688C13.8881 42.624 14.0161 42.56 14.0801 42.496C14.9121 45.568 14.1441 48.256 12.1601 50.368ZM25.6001 41.216C24.9601 42.752 23.6161 46.784 22.7841 46.592C22.0801 46.4 21.6321 43.392 22.6561 40.384C23.1681 38.848 24.1921 37.056 24.8321 36.352C25.8561 35.2 26.9441 34.88 27.2001 35.328C27.5841 35.904 26.0481 40.256 25.6001 41.216ZM36.7361 46.528C36.4801 46.656 36.2241 46.784 36.0961 46.72C36.0321 46.656 36.2241 46.464 36.2241 46.464C36.2241 46.464 37.6321 44.992 38.1441 44.288C38.4641 43.904 38.8481 43.392 39.2321 42.88C39.2321 42.944 39.2321 43.008 39.2321 43.008C39.2321 44.864 37.5041 46.08 36.7361 46.528ZM45.2481 44.608C45.0561 44.48 45.0561 44.032 45.7601 42.56C46.0161 41.984 46.6561 41.024 47.6801 40.128C47.8081 40.512 47.8721 40.896 47.8721 41.216C47.8721 43.392 46.2721 44.224 45.2481 44.608Z" fill="white"/>
</svg>
