<svg width="65" height="64" viewBox="0 0 65 64" fill="none" xmlns="http://www.w3.org/2000/svg">
<g clip-path="url(#clip0_2311_154)">
<path d="M32.7002 12.8C24.1882 12.8 18.8122 17.088 16.7002 25.6C19.9002 21.312 23.6122 19.712 27.9002 20.8C30.3322 21.44 32.0602 23.168 33.9802 25.152C37.1162 28.352 40.7642 32 48.7002 32C57.2122 32 62.5882 27.712 64.7002 19.2C61.5002 23.488 57.7882 25.088 53.5002 24C51.0682 23.36 49.3402 21.632 47.4202 19.648C44.2842 16.512 40.6362 12.8 32.7002 12.8ZM16.7002 32C8.1882 32 2.8122 36.288 0.700195 44.8C3.9002 40.512 7.6122 38.912 11.9002 40C14.3322 40.64 16.0602 42.368 17.9802 44.352C21.1162 47.552 24.7642 51.2 32.7002 51.2C41.2122 51.2 46.5882 46.912 48.7002 38.4C45.5002 42.688 41.7882 44.288 37.5002 43.2C35.0682 42.624 33.3402 40.832 31.4202 38.848C28.2842 35.712 24.6362 32 16.7002 32Z" fill="white"/>
</g>
<defs>
<clipPath id="clip0_2311_154">
<rect width="64" height="64" fill="white" transform="translate(0.700195)"/>
</clipPath>
</defs>
</svg>
