<svg width="68" height="68" viewBox="0 0 68 68" fill="none" xmlns="http://www.w3.org/2000/svg">
<path d="M43.8757 25.0571C43.8534 29.0417 41.2327 32.4316 37.6685 33.5809L36.0272 33.9655C35.647 33.9968 35.2535 34.0326 34.8689 34.0326H32.9325L34.775 35.8617H32.7089L30.8664 34.0326H29.252V32.6373H34.8287C38.9832 32.6373 42.3776 29.2206 42.3776 24.9945C42.3776 24.6457 42.3507 24.2968 42.2971 23.9614C42.4402 24.0285 42.5788 24.109 42.7219 24.1895C42.8606 24.27 42.9992 24.355 43.1289 24.4533C43.2183 24.5115 43.3078 24.5741 43.3927 24.6501C43.4375 24.6814 43.4822 24.7083 43.509 24.744C43.6253 24.838 43.7371 24.9319 43.8534 25.0347C43.8578 25.0437 43.8757 25.0571 43.8757 25.066V25.0571Z" fill="url(#paint0_linear_4335_114)"/>
<path d="M42.6012 38.2588C46.1967 37.1095 48.8085 33.6838 48.8085 29.6679C48.8085 28.854 48.7011 28.0535 48.491 27.2977C48.4686 27.1903 48.4373 27.0875 48.4015 26.9846C47.5563 24.2432 45.4544 22.0161 42.7622 21.0457C42.6593 21.0054 42.5565 20.9741 42.4581 20.9428C42.1808 20.8534 41.8991 20.7773 41.6084 20.7192C41.5145 20.6968 41.4206 20.6745 41.3266 20.6611C40.8347 20.5716 40.3159 20.5224 39.7927 20.5224H39.7704L39.1174 20.5135H39.0995L26.9309 20.3167L23.8541 17.2399H34.8734C36.6846 17.2399 38.3571 17.9331 39.663 19.069H39.7882C39.9761 19.069 40.1728 19.0735 40.3606 19.0824C40.6961 19.1048 41.0225 19.1361 41.349 19.1853C41.5234 19.2166 41.6889 19.2434 41.8543 19.2792C40.2041 17.1952 37.6729 15.8446 34.8287 15.8446H21.4258V45.7362L26.363 50.3916L26.3764 50.3692H27.8164V21.9311L27.8298 21.9133H39.7972C40.0521 21.9133 40.2846 21.9311 40.5261 21.9535C40.8436 21.9893 41.1567 22.0429 41.4563 22.11C41.4608 22.119 41.4697 22.119 41.4787 22.119C41.7559 22.186 42.0243 22.271 42.2881 22.3694C42.3015 22.3739 42.315 22.3828 42.3329 22.3828C42.3373 22.3918 42.3552 22.3918 42.3597 22.3962H42.3686C42.5296 22.4544 42.6862 22.5215 42.8427 22.602C43.0573 22.6959 43.2586 22.8077 43.4554 22.9284C43.8176 23.1341 44.1619 23.3801 44.4795 23.6484C44.6002 23.7423 44.721 23.8497 44.8372 23.9615L45.1056 24.2253C45.1771 24.3148 45.2666 24.3997 45.3471 24.4892L45.356 24.4981C45.5081 24.6725 45.6556 24.847 45.7853 25.0348C45.7987 25.0437 45.8077 25.0571 45.8166 25.075C45.9105 25.1958 45.9955 25.3299 46.085 25.4686C46.1386 25.5401 46.1789 25.6206 46.2236 25.7011C46.3041 25.8219 46.3667 25.9471 46.4338 26.0723C46.4874 26.1618 46.5277 26.2467 46.5635 26.3406C46.7334 26.685 46.8676 27.0383 46.9794 27.4095C47.0196 27.5347 47.0509 27.651 47.0822 27.7762C47.0956 27.8343 47.1091 27.8925 47.1269 27.9551C47.1493 28.049 47.1717 28.1429 47.1851 28.2368C47.2074 28.3531 47.2298 28.4694 47.2432 28.5856C47.2656 28.7019 47.279 28.8271 47.288 28.9479C47.3103 29.1894 47.3237 29.4264 47.3237 29.6768C47.3237 29.8647 47.3193 30.0525 47.3058 30.2448C47.2879 30.4102 47.2745 30.5847 47.2522 30.7457C47.2432 30.7814 47.2432 30.8127 47.2387 30.8396C47.2074 31.014 47.1806 31.1839 47.1448 31.3405C47.1091 31.5238 47.0554 31.6982 47.0062 31.8726C46.7155 32.861 46.237 33.7554 45.5975 34.5335C45.5304 34.614 45.4678 34.6945 45.3918 34.775C45.2263 34.9718 45.0474 35.1641 44.8507 35.3385C44.7612 35.428 44.6673 35.504 44.5734 35.58C44.4795 35.6605 44.3856 35.7365 44.2916 35.8036C44.1172 35.9422 43.9294 36.0719 43.7416 36.1837C43.6119 36.2732 43.4777 36.3492 43.3391 36.4163C43.2362 36.4744 43.1334 36.5236 43.035 36.5818C43.0305 36.5907 43.0126 36.5907 43.0037 36.5996C42.9098 36.6444 42.8158 36.6891 42.713 36.7204C42.713 36.7293 42.713 36.7204 42.7041 36.7293C42.6772 36.7427 42.637 36.7562 42.6012 36.7741H42.5923C42.5923 36.7741 42.5699 36.7785 42.5565 36.7875C42.4983 36.8188 42.4357 36.8411 42.3686 36.859C42.3597 36.8635 42.3463 36.8724 42.3373 36.8724C42.2568 36.9037 42.1763 36.9261 42.0958 36.9529C41.9885 36.9932 41.8767 37.0245 41.7694 37.0558H41.7604C41.7604 37.0558 41.7381 37.0603 41.7247 37.0603C41.7157 37.0603 41.7112 37.0692 41.7112 37.0692C41.6933 37.0782 41.6799 37.0782 41.6665 37.0826C41.6486 37.0826 41.6352 37.0916 41.6218 37.0916C41.5815 37.105 41.5413 37.1139 41.4966 37.1229C41.4921 37.1229 41.4832 37.1229 41.4832 37.1274C41.3311 37.1676 41.1791 37.1944 41.0225 37.2213H41.0091C40.9286 37.2347 40.8481 37.2436 40.7676 37.257C40.6066 37.2794 40.4501 37.2973 40.2891 37.3107C40.2578 37.3107 40.222 37.3107 40.1863 37.3197C40.0476 37.3197 39.909 37.3241 39.7704 37.3241H29.2609V38.7194H39.8061C40.1907 38.7194 40.5798 38.6881 40.9554 38.6523L51.4783 48.9248H47.9588L39.1264 40.1729H37.0513L47.3103 50.3335V50.3782H52.9407V50.3469L52.9496 50.3558L53.8932 49.278L42.6057 38.2677L42.6012 38.2588ZM26.3585 48.4105L22.8882 45.0832V34.0327H24.9006V32.6374H22.8882V18.34L26.3585 21.8104V48.4194V48.4105Z" fill="url(#paint1_linear_4335_114)"/>
<path d="M33.7107 0C15.0933 0 0 15.0933 0 33.7107C0 52.3281 15.0933 67.4214 33.7107 67.4214C52.3281 67.4214 67.4214 52.3281 67.4214 33.7107C67.4214 15.0933 52.3281 0 33.7107 0ZM33.7107 66.0753C15.867 66.0753 1.35057 51.5589 1.35057 33.7152C1.35057 15.8715 15.867 1.35058 33.7107 1.35058C51.5544 1.35058 66.0753 15.867 66.0753 33.7152C66.0753 51.5634 51.5589 66.0753 33.7107 66.0753Z" fill="url(#paint2_linear_4335_114)"/>
<defs>
<linearGradient id="paint0_linear_4335_114" x1="23.7334" y1="7.32521" x2="68.4678" y2="84.8089" gradientUnits="userSpaceOnUse">
<stop stop-color="white"/>
<stop offset="0.42" stop-color="#51D2FF"/>
<stop offset="0.85" stop-color="#5100FF"/>
</linearGradient>
<linearGradient id="paint1_linear_4335_114" x1="17.8347" y1="6.55157" x2="68.5618" y2="94.415" gradientUnits="userSpaceOnUse">
<stop stop-color="white"/>
<stop offset="0.42" stop-color="#51D2FF"/>
<stop offset="0.85" stop-color="#5100FF"/>
</linearGradient>
<linearGradient id="paint2_linear_4335_114" x1="14.5835" y1="0.581375" x2="75.6054" y2="106.266" gradientUnits="userSpaceOnUse">
<stop stop-color="#51D2FF"/>
<stop offset="1" stop-color="#5100FF"/>
</linearGradient>
</defs>
</svg>
